<svg xmlns="http://www.w3.org/2000/svg" version="1.1" viewBox="-5.0 -10.0 110.0 135.0">
 <path d="m73.57 59.215c0-1.3203 1.0742-2.3984 2.3945-2.3984 1.3242 0 2.3984 1.0781 2.3984 2.3984v29.23c0 2.2852-0.94922 4.3789-2.4531 5.8984h-0.007812l0.007812 0.003906c-1.5039 1.5078-3.6055 2.457-5.8906 2.457h-58.477c-2.2891 0-4.3906-0.94531-5.8945-2.4609v0.003906c-1.5195-1.5156-2.457-3.6055-2.457-5.9023v-58.469c0-2.2852 0.94531-4.3867 2.457-5.8906l0.003906-0.003907 0.042968-0.046875c1.5078-1.4844 3.5898-2.4102 5.8477-2.4102h29.238c1.3203 0 2.3984 1.0781 2.3984 2.3984 0 1.3203-1.0781 2.3984-2.3984 2.3984h-29.238c-0.97266 0-1.875 0.39453-2.5078 1.0391l-0.007812 0.003906c-0.64453 0.63672-1.0391 1.5391-1.0391 2.5117v58.469c0 0.98047 0.40234 1.875 1.0469 2.5195h-0.007812l0.007812 0.003906c0.63281 0.64062 1.5352 1.0391 2.5078 1.0391h58.477c0.96875 0 1.8672-0.41016 2.5039-1.043 0.63672-0.63672 1.0469-1.5391 1.0469-2.5195zm12.629-25.922-39.621 39.633c-0.46484 0.46484-1.082 0.69531-1.6914 0.69531v0.007812h-16.113c-1.3242 0-2.3984-1.0781-2.3984-2.3984v-16.121c0-0.66016 0.26953-1.2578 0.70312-1.6914l39.621-39.621 0.13281-0.12891 8.1914-8.1797 0.015624-0.019531 0.16016-0.14453c1.4961-1.4102 3.4297-2.1289 5.3438-2.1289 1.9883 0 3.9961 0.76172 5.5078 2.2734l0.019531 0.019531 0.078126 0.085938 8.3672 8.3594h0.003906c1.5195 1.5156 2.2891 3.5312 2.2891 5.5273 0 1.9805-0.76953 3.9961-2.2891 5.5195l-0.003906 0.007812-0.039063 0.035157zm-55.027 22.805v12.734h12.727l37.223-37.23-12.727-12.727zm40.609-40.609 12.73 12.734 6.625-6.6172c0.57031-0.57812 0.875-1.3711 0.875-2.1445 0-0.78125-0.30469-1.5664-0.875-2.1406l-8.3242-8.3203-0.12891-0.125-0.019532-0.019531c-0.57422-0.57422-1.3477-0.86328-2.1211-0.86328-0.75391 0-1.5039 0.27734-2.0703 0.81641l-0.066406 0.066406-0.003906-0.007812v0.007812z"/>
<text x="0.0" y="117.5" font-size="5.0" font-weight="bold" font-family="Arbeit Regular, Helvetica, Arial-Unicode, Arial, Sans-serif" fill="#000000">Created by Alvida</text><text x="0.0" y="122.5" font-size="5.0" font-weight="bold" font-family="Arbeit Regular, Helvetica, Arial-Unicode, Arial, Sans-serif" fill="#000000">from Noun Project</text></svg>